<svg version="1.1" x="0px" y="0px" width="306" height="307" xmlns="http://www.w3.org/2000/svg" xmlns:xlink="http://www.w3.org/1999/xlink" xmlns:a="http://ns.adobe.com/AdobeSVGViewerExtensions/3.0/" xml:space="preserve"><g transform="translate(20.000011465645 20.000021440824) scale(3.8976562077044 3.8976562077043) rotate(0 34.119998931885 34.127998352051)"><path d="M33.276,66.017c4.824-1.822,9.147-4.622,12.74-8.22c-3.261,0.879-6.64,1.339-10.051,1.339
		c-3.858,0-7.755-0.59-11.565-1.793c0.885-0.633,1.639-1.479,2.156-2.522c0.487-0.982,0.719-2.029,0.719-3.059
		c0.001-2.535-1.404-4.976-3.83-6.18c-0.983-0.487-2.029-0.719-3.059-0.719c-2.535-0.001-4.977,1.405-6.18,3.83
		c-0.486,0.98-0.715,2.022-0.715,3.047c0,0.057,0.012,0.111,0.014,0.168C7.258,47.446,2.656,41.339,0,34.491
		C0.176,51.28,12.466,65.157,28.547,67.803l2.081-0.786L33.276,66.017z" fill="#000000"></path><path d="M66.209,34.905c-1.875-4.98-4.781-9.416-8.525-13.075c0.953,3.387,1.452,6.906,1.452,10.46
		c0,3.859-0.589,7.755-1.792,11.565c-0.634-0.886-1.479-1.639-2.522-2.155c-0.983-0.488-2.029-0.721-3.059-0.721
		c-2.535,0-4.976,1.406-6.18,3.832c-0.487,0.982-0.72,2.029-0.72,3.059c0,2.535,1.405,4.976,3.831,6.179
		c0.979,0.486,2.021,0.715,3.046,0.715c0.057,0,0.112-0.012,0.168-0.014c-4.462,6.248-10.569,10.85-17.418,13.506
		c16.949-0.178,30.937-12.699,33.391-29.005l-1.158-3.01L66.209,34.905z" fill="#000000"></path><path d="M39.709,0.453l-2.081,0.786l-2.649,1c-4.681,1.768-8.885,4.463-12.414,7.909
		c3.164-0.816,6.428-1.238,9.725-1.238c4.023,0,8.098,0.634,12.062,1.936c-1.015,0.634-1.894,1.53-2.46,2.688
		c-0.473,0.946-0.701,1.96-0.701,2.958c0,2.459,1.361,4.826,3.719,5.993c0.947,0.473,1.961,0.701,2.959,0.701
		c2.459,0,4.825-1.369,5.992-3.719c0.473-0.947,0.693-1.961,0.693-2.95c0-0.203-0.034-0.406-0.051-0.6
		c6.31,4.388,10.986,10.427,13.737,17.233C67.773,16.638,55.592,3.066,39.709,0.453z" fill="#000000"></path><path d="M2.238,33.276c1.822,4.824,4.622,9.148,8.22,12.74c-0.88-3.26-1.339-6.639-1.339-10.051
		c0-3.858,0.59-7.755,1.793-11.565c0.633,0.885,1.479,1.638,2.521,2.156c0.984,0.488,2.03,0.72,3.06,0.72
		c2.535,0.001,4.976-1.405,6.18-3.831c0.487-0.983,0.72-2.029,0.72-3.059c0-2.536-1.406-4.976-3.831-6.18
		c-0.98-0.486-2.022-0.715-3.047-0.715c-0.057,0-0.111,0.012-0.167,0.014C20.809,7.259,26.916,2.656,33.765,0
		C16.976,0.176,3.098,12.466,0.452,28.547l0.786,2.081L2.238,33.276z" fill="#000000"></path></g>
<g transform="translate(79.630504629707 171.88917544009)  scale(1.2506500313005 1.2506500313005)"><text dominant-baseline="auto" alignment-baseline="auto" font-family="Tabitha" font-size="34px" fill="#000000" letter-spacing="0" xml:space="preserve">Inno</text></g>
<g transform="translate(148.11915209065 171.76033072869)  scale(1.218175110026 1.218175110026)"><text dominant-baseline="auto" alignment-baseline="auto" font-family="Tabitha" font-size="34px" fill="#000000" letter-spacing="0" xml:space="preserve">Meet</text></g>
</svg>